<?xml version="1.0" encoding="utf-8"?>
<!-- Generator: Adobe Illustrator 16.0.0, SVG Export Plug-In . SVG Version: 6.00 Build 0)  -->
<!DOCTYPE svg PUBLIC "-//W3C//DTD SVG 1.1//EN" "http://www.w3.org/Graphics/SVG/1.1/DTD/svg11.dtd">
<svg version="1.1" id="Layer_1" xmlns="http://www.w3.org/2000/svg" xmlns:xlink="http://www.w3.org/1999/xlink" x="0px" y="0px"
	 width="240px" height="360px" viewBox="0 0 240 360" enable-background="new 0 0 240 360" xml:space="preserve">
<g>
	<defs>
		<rect id="SVGID_1_" width="240" height="360"/>
	</defs>
	<clipPath id="SVGID_2_">
		<use xlink:href="#SVGID_1_"  overflow="visible"/>
	</clipPath>
	<path clip-path="url(#SVGID_2_)" fill="#00D7DF" d="M141,260h-21H99c-38.107,0-69,30.893-69,69v31h90h90v-31
		C210,290.893,179.107,260,141,260"/>
	<path clip-path="url(#SVGID_2_)" d="M120,170L170,0c0,0-160,10-160,130v40H120z"/>
	<path clip-path="url(#SVGID_2_)" fill="#50412E" d="M120,90l50-90c0,0,60,40,60,130v40H120V90z"/>
	<path clip-path="url(#SVGID_2_)" fill="#00A1A7" d="M120,260H99c-38.107,0-69,30.893-69,69v31h90V260z"/>
	<path clip-path="url(#SVGID_2_)" fill="#FFEACF" d="M150,260c0,16.568-13.432,30-30,30c-16.568,0-30-13.432-30-30v-30
		c0-16.568,13.432-30,30-30c16.568,0,30,13.432,30,30V260z"/>
	<path clip-path="url(#SVGID_2_)" fill="#FFEACF" d="M120,50c55.228,0,100,47.01,100,105s-44.772,105-100,105
		c-55.228,0-100-47.01-100-105S64.772,50,120,50"/>
	<path clip-path="url(#SVGID_2_)" fill="#FFD6A0" d="M120,248c-22.528,0-44.084-4.358-63.959-12.294
		C73.376,250.872,95.67,260,120,260s46.624-9.128,63.959-24.294C164.084,243.642,142.528,248,120,248"/>
	<path clip-path="url(#SVGID_2_)" fill="#FFEACF" d="M20,150c11.046,0,20,8.954,20,20s-8.954,20-20,20s-20-8.954-20-20
		S8.954,150,20,150"/>
	<path clip-path="url(#SVGID_2_)" fill="#FFEACF" d="M220,150c11.046,0,20,8.954,20,20s-8.954,20-20,20s-20-8.954-20-20
		S208.954,150,220,150"/>
	<path clip-path="url(#SVGID_2_)" fill="#50412E" d="M170,0l-70,60l20,30h80v60c0,11.046,8.954,20,20,20v-70L170,0z"/>
	<rect x="40" y="90" clip-path="url(#SVGID_2_)" fill="#FFEACF" width="160" height="30"/>
	<path clip-path="url(#SVGID_2_)" d="M50,60l-30,40v70c11.046,0,20-8.954,20-20V90h80l50-90L50,60z"/>
</g>
</svg>
