<?xml version="1.0" encoding="utf-8"?>
<!-- Generator: Adobe Illustrator 21.0.2, SVG Export Plug-In . SVG Version: 6.00 Build 0)  -->
<svg version="1.1" id="Layer_1" xmlns="http://www.w3.org/2000/svg" xmlns:xlink="http://www.w3.org/1999/xlink" x="0px" y="0px"
	 viewBox="0 0 240 340" style="enable-background:new 0 0 240 340;" xml:space="preserve">
<style type="text/css">
	.st0{fill:#7C84E8;}
	.st1{fill:#786145;}
	.st2{fill:#933EC5;}
	.st3{fill:#99EFF2;}
	.st4{fill:#00D7DF;}
	.st5{fill:#00A1A7;}
	.st6{fill:#50412E;}
	.st7{fill:#FFEACF;}
	.st8{fill:#FFD6A0;}
</style>
<path id="XMLID_937_" class="st0" d="M142,240h-21h-21c-38.1,0-69,30.9-69,69v31h90h90v-31C211,270.9,180.1,240,142,240z"/>
<path id="XMLID_938_" class="st1" d="M121,0c-14.1,0-27.6,2.7-40,7.5C40,23.5,11,63.4,11,110v40h70l150-10v-30
	C231,49.2,181.8,0,121,0z"/>
<g id="XMLID_939_">
	<path id="XMLID_940_" class="st2" d="M121,240h-21c-38.1,0-69,30.9-69,69v31h90V240z"/>
</g>
<g id="XMLID_941_">
	<rect id="XMLID_942_" x="61" y="310" class="st3" width="120" height="30"/>
</g>
<g id="XMLID_943_">
	<rect id="XMLID_944_" x="61" y="310" class="st4" width="60" height="30"/>
</g>
<g id="XMLID_945_">
	<path id="XMLID_946_" class="st5" d="M91,310v-69.4c-11,1.4-21.2,5.5-30,11.5V310H91z"/>
</g>
<g id="XMLID_947_">
	<path id="XMLID_948_" class="st4" d="M151,310v-69.4c11,1.4,21.2,5.5,30,11.5V310H151z"/>
</g>
<g id="XMLID_949_">
	<path id="XMLID_950_" class="st6" d="M81,7.5V150H11v-40C11,63.4,40,23.5,81,7.5z"/>
</g>
<g id="XMLID_951_">
	<path id="XMLID_952_" class="st7" d="M151,240c0,16.6-13.4,30-30,30l0,0c-16.6,0-30-13.4-30-30v-30c0-16.6,13.4-30,30-30l0,0
		c16.6,0,30,13.4,30,30V240z"/>
</g>
<g id="XMLID_953_">
	<ellipse id="XMLID_954_" class="st7" cx="121" cy="135" rx="100" ry="105"/>
</g>
<g id="XMLID_967_">
	<path id="XMLID_968_" class="st8" d="M121,228c-22.5,0-44.1-4.4-64-12.3c17.3,15.2,39.6,24.3,64,24.3s46.6-9.1,64-24.3
		C165.1,223.6,143.5,228,121,228z"/>
</g>
<g id="XMLID_969_">
	<circle id="XMLID_970_" class="st7" cx="21" cy="150" r="20"/>
</g>
<g id="XMLID_971_">
	<circle id="XMLID_972_" class="st7" cx="221" cy="150" r="20"/>
</g>
<g id="XMLID_973_">
	<path id="XMLID_66_" class="st6" d="M21,150c11,0,20-9,20-20s-9-20-20-20V150z"/>
</g>
<g id="XMLID_974_">
	<path id="XMLID_64_" class="st1" d="M221,150c-11,0-20-9-20-20s9-20,20-20V150z"/>
</g>
<g id="XMLID_975_">
	<path id="XMLID_976_" class="st1" d="M161,30v30c0,0,30,60,60,70V80L161,30z"/>
</g>
<g id="XMLID_977_">
	<path id="XMLID_978_" class="st1" d="M75.7,20L66,40l9.7,20c0,0,9.2,17.3,38.7,30c28.2,12.2,61,10,82.7,10c33.3,0,43-40,43-40
		l-77.3-30L75.7,20z"/>
</g>
<g id="XMLID_979_">
	<path id="XMLID_980_" class="st6" d="M81,10v50c0,0-30,60-60,70V80L81,10z"/>
</g>
</svg>
