<?xml version="1.0" encoding="utf-8"?>
<!-- Generator: Adobe Illustrator 21.0.2, SVG Export Plug-In . SVG Version: 6.00 Build 0)  -->
<svg version="1.1" id="Layer_1" xmlns="http://www.w3.org/2000/svg" xmlns:xlink="http://www.w3.org/1999/xlink" x="0px" y="0px"
	 viewBox="0 0 240.2 340" style="enable-background:new 0 0 240.2 340;" xml:space="preserve">
<style type="text/css">
	.st0{fill:#50412E;}
	.st1{fill:#FFEACF;}
	.st2{fill:#FFD6A0;}
	.st3{fill:#FF9811;}
	.st4{fill:#BF720D;}
</style>
<path id="XMLID_1399_" class="st0" d="M141,242.9h-21H99c-38.1,0-69,30-69,67V340h90h90v-30.1C210,272.9,179.1,242.9,141,242.9z"/>
<path id="XMLID_1400_" d="M120,242.9H99c-38.1,0-69,30-69,67V340h90V242.9z"/>
<path id="XMLID_1401_" class="st1" d="M150,242.9c0,16.1-13.4,29.1-30,29.1l0,0c-16.6,0-30-13-30-29.1v-29.1
	c0-16.1,13.4-29.1,30-29.1l0,0c16.6,0,30,13,30,29.1V242.9z"/>
<ellipse id="XMLID_1402_" class="st1" cx="120" cy="140.9" rx="100" ry="102"/>
<path id="XMLID_1412_" class="st2" d="M120,231.2c-22.5,0-44.1-4.3-64-11.9c17.3,14.8,39.6,23.6,64,23.6s46.6-8.8,64-23.6
	C164.1,226.9,142.5,231.2,120,231.2z"/>
<ellipse id="XMLID_1413_" class="st1" cx="20" cy="155.4" rx="20" ry="19.4"/>
<ellipse id="XMLID_1414_" class="st1" cx="220" cy="155.4" rx="20" ry="19.4"/>
<path id="XMLID_1415_" class="st3" d="M227.4,85.6c1.6-4,2.6-8.3,2.6-12.7c0-18.3-14.8-33.1-33.4-34c-2.4-16.5-17-29.1-34.6-29.1
	c-5.2,0-10.2,1.2-14.6,3.1C141,5.1,131.1,0,120,0S99,5.1,92.6,12.8c-4.5-2-9.4-3.1-14.6-3.1c-17.6,0-32.2,12.7-34.6,29.1
	C24.8,39.7,10,54.6,10,72.9c0,4.6,0.9,8.8,2.6,12.7C4.9,91.9,0,101.2,0,111.7c0,18.7,15.7,34,35,34v-21.5c7.4-3.2,13-9.7,14.6-17.7
	c0.3,0,0.6-0.1,0.9-0.1c1.5,0.3,3,0.4,4.6,0.4c13.8,0,25-10.9,25-24.3c4.2,3,9.4,4.9,15,4.9c13.8,0,25-10.9,25-24.3
	c0,13.4,11.2,24.3,25,24.3c5.6,0,10.8-1.8,15-4.9c0,13.4,11.2,24.3,25,24.3c1.6,0,3.1-0.2,4.6-0.4c0.3,0,0.6,0.1,0.9,0.1
	c1.6,8,7.1,14.6,14.6,17.7v21.5c19.3,0,35-15.3,35-34C240,101.2,235.1,91.9,227.4,85.6z"/>
<path id="XMLID_1416_" class="st4" d="M12.6,85.6c-1.7-3.9-2.6-8.2-2.6-12.7c0-18.3,14.8-33.1,33.4-34C45.8,22.3,60.4,9.7,78,9.7
	c5.2,0,10.2,1.2,14.6,3.1C99,5.1,108.9,0,120,0v29.1v19.7c0,5.7,0,11.3,0,14.3c0,13.4-11.2,24.3-25,24.3c-5.6,0-10.8-1.8-15-4.9
	c0,13.4-11.2,24.3-25,24.3c-1.6,0-3.1-0.2-4.6-0.4c-0.3,0-0.6,0.1-0.9,0.1c-1.6,8-7.1,14.6-14.6,17.7v21.5c-19.3,0-35-15.3-35-34
	C0,101.2,4.9,91.9,12.6,85.6z"/>
<path id="XMLID_58_" class="st4" d="M20,155.4c11,0,20-8.7,20-19.4s-9-19.4-20-19.4V155.4z"/>
<path id="XMLID_57_" class="st3" d="M220,155.4c-11,0-20-8.7-20-19.4s9-19.4,20-19.4V155.4z"/>
</svg>
