<?xml version="1.0" encoding="utf-8"?>
<!-- Generator: Adobe Illustrator 21.0.2, SVG Export Plug-In . SVG Version: 6.00 Build 0)  -->
<svg version="1.1" id="Layer_1" xmlns="http://www.w3.org/2000/svg" xmlns:xlink="http://www.w3.org/1999/xlink" x="0px" y="0px"
	 viewBox="0 0 240 338" style="enable-background:new 0 0 240 338;" xml:space="preserve">
<style type="text/css">
	.st0{fill:#FFDA44;}
	.st1{fill:#FF9811;}
	.st2{fill:#50412E;}
	.st3{fill:#A0815C;}
	.st4{fill:#786145;}
	.st5{fill:#FF5023;}
</style>
<path id="XMLID_1918_" class="st0" d="M138,253.6h-18h-18c-32.7,0-59.1,26.5-59.1,59.1v26.6H120h77.1v-26.6
	C197.1,280.1,170.7,253.6,138,253.6z"/>
<g id="XMLID_1919_">
	<path id="XMLID_1920_" class="st1" d="M120,253.6h-18c-32.7,0-59.1,26.5-59.1,59.1v26.6H120V253.6z"/>
</g>
<g id="XMLID_1921_">
	<circle id="XMLID_1922_" cx="25.7" cy="176.4" r="25.7"/>
</g>
<g id="XMLID_1923_">
	<circle id="XMLID_1924_" cx="42.9" cy="202.1" r="25.7"/>
</g>
<g id="XMLID_1925_">
	<circle id="XMLID_1926_" cx="68.6" cy="219.3" r="25.7"/>
</g>
<g id="XMLID_1927_">
	<circle id="XMLID_1928_" class="st2" cx="197.1" cy="202.1" r="25.7"/>
</g>
<g id="XMLID_1929_">
	<circle id="XMLID_1930_" class="st2" cx="171.4" cy="219.3" r="25.7"/>
</g>
<g id="XMLID_1931_">
	<circle id="XMLID_1932_" class="st2" cx="214.3" cy="176.4" r="25.7"/>
</g>
<g id="XMLID_1933_">
	<circle id="XMLID_1934_" class="st2" cx="218.6" cy="137.9" r="21.4"/>
</g>
<g id="XMLID_1935_">
	<circle id="XMLID_1936_" class="st2" cx="210" cy="103.6" r="21.4"/>
</g>
<g id="XMLID_1937_">
	<circle id="XMLID_1938_" class="st2" cx="184.3" cy="77.9" r="21.4"/>
</g>
<g id="XMLID_1939_">
	<circle id="XMLID_1940_" class="st2" cx="158.6" cy="60.7" r="21.4"/>
</g>
<g id="XMLID_1941_">
	<circle id="XMLID_1942_" class="st2" cx="158.6" cy="77.9" r="21.4"/>
</g>
<g id="XMLID_1943_">
	<path id="XMLID_1944_" class="st2" d="M120,90.7c16.5,0,30-13.5,30-30s-13.5-30-30-30"/>
</g>
<g id="XMLID_1945_">
	<circle id="XMLID_1946_" cx="21.4" cy="137.9" r="21.4"/>
</g>
<g id="XMLID_1947_">
	<circle id="XMLID_1948_" cx="30" cy="103.6" r="21.4"/>
</g>
<g id="XMLID_1949_">
	<circle id="XMLID_1950_" cx="55.7" cy="77.9" r="21.4"/>
</g>
<g id="XMLID_1951_">
	<path id="XMLID_1952_" class="st3" d="M145.7,253.6c0,14.2-25.7,34.3-25.7,34.3s-25.7-20.1-25.7-34.3v-25.7
		c0-14.2,11.5-25.7,25.7-25.7l0,0c14.2,0,25.7,11.5,25.7,25.7V253.6z"/>
</g>
<g id="XMLID_1953_">
	<circle id="XMLID_1954_" cx="81.4" cy="60.7" r="21.4"/>
</g>
<g id="XMLID_1955_">
	<path id="XMLID_1956_" d="M120,90.7c-16.5,0-30-13.5-30-30s13.5-30,30-30"/>
</g>
<g id="XMLID_1957_">
	<ellipse id="XMLID_1958_" class="st3" cx="120" cy="163.6" rx="85.7" ry="90"/>
</g>
<g id="XMLID_1969_">
	<path id="XMLID_1970_" class="st4" d="M120,243.3c-19.3,0-37.8-3.8-54.9-10.5c14.8,13,33.9,20.8,54.9,20.8s39.9-7.8,54.9-20.8
		C157.8,239.5,139.3,243.3,120,243.3z"/>
</g>
<g id="XMLID_1971_">
	<rect id="XMLID_1972_" x="137.1" y="313.6" class="st1" width="34.3" height="25.7"/>
</g>
<g id="XMLID_1973_">
	<rect id="XMLID_1974_" x="68.6" y="313.6" class="st5" width="34.3" height="25.7"/>
</g>
<path id="XMLID_1975_" class="st2" d="M107.1,125c9,0,17.2-3.1,23.7-8.2c5.4,14.8,19.6,25.4,36.3,25.4c4.8,0,9.3-0.9,13.6-2.5
	c2.7,11.2,12.9,19.6,24.9,19.6c14.2,0,25.7-11.5,25.7-25.7s-11.5-25.7-25.7-25.7c-0.1,0-0.2,0-0.3,0c0.2-1.4,0.3-2.8,0.3-4.3
	c0-21.3-17.2-38.6-38.6-38.6c-9,0-17.2,3.1-23.7,8.2c-5.4-14.8-19.6-25.4-36.3-25.4"/>
<path id="XMLID_1976_" d="M107.1,47.9c-9.5,0-18.3,3.5-25,9.3c-8.3,7.1-45.4,41-47.4,50.8c-0.2,0-0.3,0-0.4,0
	c-14.2,0-25.7,11.5-25.7,25.7c0,14.2,11.5,25.7,25.7,25.7S60,147.9,60,133.7c0-0.2,0-0.3,0-0.4c9.8-2,17.1-10.6,17.1-21
	c0-0.5,0-1-0.1-1.5c7,8.8,17.9,14.4,30.1,14.4c4.5,0,8.8-0.8,12.9-2.2V50.1C116,48.6,111.7,47.9,107.1,47.9z"/>
<g id="XMLID_1977_">
	<circle id="XMLID_1978_" class="st3" cx="34.3" cy="176.4" r="17.1"/>
</g>
<g id="XMLID_1979_">
	<circle id="XMLID_1980_" class="st3" cx="205.7" cy="176.4" r="17.1"/>
</g>
</svg>
