<?xml version="1.0" encoding="utf-8"?>
<!-- Generator: Adobe Illustrator 22.0.1, SVG Export Plug-In . SVG Version: 6.00 Build 0)  -->
<svg version="1.1" id="BACKGROUND_1" xmlns="http://www.w3.org/2000/svg" xmlns:xlink="http://www.w3.org/1999/xlink" x="0px"
	 y="0px" viewBox="0 0 500 500" style="enable-background:new 0 0 500 500;" xml:space="preserve">
<style type="text/css">
	.st0{clip-path:url(#SVGID_2_);}
	.st1{fill:#C1D993;}
	.st2{fill:#6EA604;}
	.st3{fill:#7DAF1D;}
	.st4{opacity:0.2;fill:#7DAF1D;}
	.st5{fill:#FEAC58;}
	.st6{fill:#FE8811;}
	.st7{fill:#FFF1E2;}
	.st8{opacity:0.2;fill:#FE8811;}
	.st9{fill:#FE5A40;}
	.st10{fill:#842A41;}
	.st11{opacity:0.12;fill:#FFFFFF;}
	.st12{fill:#4E4D4D;}
	.st13{fill:#8B3BA1;}
	.st14{fill:#222021;}
	.st15{fill:#00BDE3;}
	.st16{fill:#FDC828;}
	.st17{fill:#FF79A3;}
	.st18{opacity:0.2;}
	.st19{opacity:0.2;fill:#6EA604;}
	.st20{fill:#FE7B66;}
	.st21{fill:#FE9E8E;}
	.st22{opacity:0.2;fill:#FE6A53;}
	.st23{fill:#FFFFFF;}
	.st24{fill:#35D5C9;}
	.st25{fill:#BDBCBC;}
	.st26{fill:#02CABC;}
	.st27{fill:#FEEEBF;}
	.st28{opacity:0.18;fill:#FFFFFF;}
	.st29{opacity:0.2;fill:#FFFFFF;}
	.st30{fill:#33CAE9;}
	.st31{fill:#FE735D;}
	.st32{fill:#535152;}
</style>
<g>
	<defs>
		<rect id="SVGID_1_" width="500" height="332"/>
	</defs>
	<clipPath id="SVGID_2_">
		<use xlink:href="#SVGID_1_"  style="overflow:visible;"/>
	</clipPath>
	<g class="st0">
		<g>
			<g>
				<g>
					
						<rect x="373.5" y="127.1" transform="matrix(0.9836 0.1806 -0.1806 0.9836 41.8622 -73.9666)" class="st1" width="107.2" height="131.5"/>
					
						<rect x="374.3" y="118.4" transform="matrix(0.9836 0.1806 -0.1806 0.9836 39.5088 -65.5412)" class="st2" width="10.7" height="131.5"/>
				</g>
			</g>
			<g>
				<path class="st3" d="M428.4,169.9c5.3,11.1-1.3,25.3-1.3,25.3s-15.2-3.7-20.5-14.8c-5.3-11.1,1.3-25.3,1.3-25.3
					S423.1,158.9,428.4,169.9z"/>
				<path class="st3" d="M461.7,188.7c-11.5,9.8-30.4,6.4-30.4,6.4s-0.3-19.2,11.1-29c11.5-9.8,30.4-6.4,30.4-6.4
					S473.2,178.9,461.7,188.7z"/>
			</g>
			
				<rect x="429.5" y="132.2" transform="matrix(0.9836 0.1806 -0.1806 0.9836 43.2404 -78.9004)" class="st4" width="50.7" height="131.5"/>
		</g>
		<g>
			<g>
				
					<rect x="335.9" y="121" transform="matrix(0.9895 -0.1447 0.1447 0.9895 -22.9249 58.312)" class="st5" width="107.2" height="131.5"/>
				
					<rect x="336.4" y="128" transform="matrix(0.9895 -0.1447 0.1447 0.9895 -24.4365 51.4789)" class="st6" width="10.7" height="131.5"/>
			</g>
			<g>
				
					<rect x="351.7" y="150.1" transform="matrix(0.9901 -0.1403 0.1403 0.9901 -18.1347 53.3758)" class="st7" width="35.4" height="10.3"/>
				
					<rect x="351.7" y="150.1" transform="matrix(-0.1403 -0.9901 0.9901 -0.1403 267.4807 542.7693)" class="st7" width="35.4" height="10.3"/>
			</g>
			
				<rect x="396.3" y="196.9" transform="matrix(0.9901 -0.1403 0.1403 0.9901 -24.2675 60.1071)" class="st7" width="35.4" height="10.3"/>
			
				<rect x="392.1" y="116.9" transform="matrix(0.9895 -0.1447 0.1447 0.9895 -22.0395 62.3125)" class="st8" width="50.7" height="131.5"/>
		</g>
		<g>
			<circle class="st9" cx="449.4" cy="238.4" r="62.2"/>
			<path class="st10" d="M471.9,238.4c0-17.9,7.9-34,20.3-45.1c-0.9-0.9-1.8-1.7-2.8-2.5c-13,11.7-21.2,28.7-21.2,47.6
				s8.2,35.8,21.2,47.6c1-0.8,1.9-1.6,2.8-2.5C479.8,272.4,471.9,256.3,471.9,238.4z"/>
			<path class="st10" d="M427,238.4c0-17.9-7.9-34-20.3-45.1c0.9-0.9,1.8-1.7,2.8-2.5c13,11.7,21.2,28.7,21.2,47.6
				s-8.2,35.8-21.2,47.6c-1-0.8-1.9-1.6-2.8-2.5C419.1,272.4,427,256.3,427,238.4z"/>
			<path class="st10" d="M451.2,176.3c-0.6,0-1.2,0-1.8,0c-0.6,0-1.2,0-1.8,0v60.1h-60.3c0,0.7-0.1,1.3-0.1,2c0,0.5,0,1,0,1.5h60.4
				v60.6c0.6,0,1.2,0,1.8,0c0.6,0,1.2,0,1.8,0v-60.6h60.4c0-0.5,0-1,0-1.5c0-0.7,0-1.3-0.1-2h-60.3V176.3z"/>
			<path class="st11" d="M449.8,176.2c-0.1,0-0.2,0-0.4,0c-34.3,0-62.2,27.8-62.2,62.2s27.8,62.2,62.2,62.2c0.1,0,0.2,0,0.4,0V176.2
				z"/>
		</g>
		<g>
			<path class="st12" d="M452.4,188.4l-29.1,103c-3.2,11.5-15.3,18.2-26.7,15l-37.3-10.5c-11.5-3.2-18.2-15.3-15-26.7l29.1-103
				c3.2-11.5,15.3-18.2,26.7-15l37.3,10.5C448.9,164.9,455.6,176.9,452.4,188.4z"/>
			<g>
				
					<ellipse transform="matrix(0.8669 -0.4984 0.4984 0.8669 -86.9237 219.3065)" class="st13" cx="367.2" cy="272.4" rx="13.8" ry="13.8"/>
				
					<ellipse transform="matrix(0.8669 -0.4984 0.4984 0.8669 -87.1872 237.9085)" class="st14" cx="402" cy="282.2" rx="13.8" ry="13.8"/>
				
					<ellipse transform="matrix(5.500047e-02 -0.9985 0.9985 5.500047e-02 116.0235 602.6571)" class="st15" cx="376.4" cy="240" rx="13.8" ry="13.8"/>
				
					<ellipse transform="matrix(0.8279 -0.5609 0.5609 0.8279 -69.3715 273.5787)" class="st6" cx="411.1" cy="249.8" rx="13.8" ry="13.8"/>
				
					<ellipse transform="matrix(0.2198 -0.9755 0.9755 0.2198 98.2512 538.1016)" class="st9" cx="385.5" cy="207.6" rx="13.8" ry="13.8"/>
				
					<ellipse transform="matrix(0.8561 -0.5168 0.5168 0.8561 -51.8911 248.4749)" class="st2" cx="420.2" cy="217.4" rx="13.8" ry="13.8"/>
				
					<ellipse transform="matrix(0.8735 -0.4868 0.4868 0.8735 -35.374 214.2845)" class="st16" cx="394.7" cy="175.2" rx="13.8" ry="13.8"/>
				
					<ellipse transform="matrix(0.2632 -0.9647 0.9647 0.2632 137.8853 550.5668)" class="st17" cx="429.4" cy="185" rx="13.8" ry="13.8"/>
			</g>
			<path class="st11" d="M418.6,156.3l-18.5-5.2c-11.5-3.2-23.5,3.5-26.7,15l-29.1,103c-3.2,11.5,3.5,23.5,15,26.7l18.5,5.2
				L418.6,156.3z"/>
		</g>
		<g>
			<path class="st2" d="M349.8,163.3l-58.4,159.1L404.6,256L349.8,163.3z M326.8,280l26.9-73.3l25.3,42.7L326.8,280z"/>
			<g class="st18">
				<polygon class="st2" points="349.8,163.3 345.6,174.8 392.5,254.1 295.6,310.9 291.4,322.4 404.6,256 				"/>
			</g>
		</g>
		<g>
			<path class="st2" d="M139.3,90.9l-10.3,2.4c-4.1,0.9-6.6,5-5.7,9.1L182,354.6c0.9,4.1,5,6.6,9.1,5.7l10.3-2.4
				c4.1-0.9,6.6-5,5.7-9.1L148.4,96.6C147.5,92.5,143.4,90,139.3,90.9z M137.5,106.4c-2.3,0.5-4.6-0.9-5.1-3.2
				c-0.5-2.3,0.9-4.6,3.2-5.1c2.3-0.5,4.6,0.9,5.1,3.2C141.3,103.6,139.8,105.9,137.5,106.4z"/>
			<path class="st19" d="M137.1,106.5c-2.2,0.3-4.2-1.1-4.7-3.3c-0.5-2.2,0.7-4.3,2.8-5l-1.4-6l-4.7,1.1c-4.1,0.9-6.6,5-5.7,9.1
				L182,354.6c0.9,4.1,5,6.6,9.1,5.7l4.7-1.1L137.1,106.5z"/>
		</g>
		<g>
			<path class="st16" d="M328.3,342.9H165.6V190.2c0-40.5,32.8-73.4,73.4-73.4h16c40.5,0,73.4,32.8,73.4,73.4V342.9z"/>
			<path class="st14" d="M316.4,324.1H175.8V185.7c0-35.7,28.9-64.6,64.6-64.6h11.3c35.7,0,64.6,28.9,64.6,64.6V324.1z"/>
			<g>
				<g>
					
						<rect x="167.3" y="73.9" transform="matrix(0.9554 -0.2952 0.2952 0.9554 -29.1636 69.0028)" class="st20" width="93.3" height="114.5"/>
					
						<rect x="169.2" y="86.3" transform="matrix(0.9554 -0.2952 0.2952 0.9554 -34.6069 57.7153)" class="st9" width="9.3" height="114.5"/>
					<g>
						
							<rect x="176.5" y="85.2" transform="matrix(0.9554 -0.2952 0.2952 0.9554 -20.952 66.7129)" class="st21" width="68.1" height="35"/>
						
							<rect x="184.5" y="125.9" transform="matrix(0.9554 -0.2952 0.2952 0.9554 -28.2725 70.2441)" class="st21" width="68.1" height="5.8"/>
						
							<rect x="188" y="137.1" transform="matrix(0.9554 -0.2952 0.2952 0.9554 -31.4245 71.7642)" class="st21" width="68.1" height="5.8"/>
						
							<rect x="191.4" y="148.3" transform="matrix(0.9554 -0.2952 0.2952 0.9554 -34.5765 73.2847)" class="st21" width="68.1" height="5.8"/>
						
							<rect x="194.9" y="159.5" transform="matrix(0.9554 -0.2952 0.2952 0.9554 -37.7287 74.8056)" class="st21" width="68.1" height="5.8"/>
						
							<rect x="198.3" y="170.7" transform="matrix(0.9554 -0.2952 0.2952 0.9554 -40.8808 76.326)" class="st21" width="68.1" height="5.8"/>
					</g>
					
						<rect x="215.4" y="66.6" transform="matrix(0.9554 -0.2952 0.2952 0.9554 -25.9758 75.6119)" class="st22" width="44.1" height="114.5"/>
				</g>
				<path class="st23" d="M288.6,214.7l-83-15.4l22.1-119.1l83,15.4c3.7,0.7,6.1,4.2,5.4,7.9l-19.6,105.9
					C295.8,212.9,292.3,215.3,288.6,214.7z"/>
				<g>
					<g>
						<path class="st24" d="M287.4,214.5l-83-15.4L226.5,80l83,15.4c3.7,0.7,6.1,4.2,5.4,7.9l-19.6,105.9
							C294.6,212.8,291.1,215.2,287.4,214.5z"/>
						<g>
							<g>
								<path class="st14" d="M232.2,88.4c-0.2,1.1-1.3,1.9-2.4,1.6c-1.1-0.2-1.9-1.3-1.6-2.4c0.2-1.1,1.3-1.9,2.4-1.6
									C231.6,86.2,232.4,87.2,232.2,88.4z"/>
								<path class="st25" d="M229.5,88.7l-7.7-1.4c-0.5-0.1-0.9-0.6-0.8-1.1l0,0c0.1-0.5,0.6-0.9,1.1-0.8l7.7,1.4
									c0.5,0.1,0.9,0.6,0.8,1.1l0,0C230.5,88.5,230,88.8,229.5,88.7z"/>
							</g>
							<g>
								<path class="st14" d="M230.7,96.4c-0.2,1.1-1.3,1.9-2.4,1.6c-1.1-0.2-1.9-1.3-1.6-2.4c0.2-1.1,1.3-1.9,2.4-1.6
									C230.1,94.2,230.9,95.3,230.7,96.4z"/>
								<path class="st25" d="M228,96.8l-7.7-1.4c-0.5-0.1-0.9-0.6-0.8-1.1l0,0c0.1-0.5,0.6-0.9,1.1-0.8l7.7,1.4
									c0.5,0.1,0.9,0.6,0.8,1.1l0,0C229,96.6,228.5,96.9,228,96.8z"/>
							</g>
							<g>
								<path class="st14" d="M229.2,104.5c-0.2,1.1-1.3,1.9-2.4,1.6c-1.1-0.2-1.9-1.3-1.6-2.4c0.2-1.1,1.3-1.9,2.4-1.6
									C228.6,102.3,229.4,103.4,229.2,104.5z"/>
								<path class="st25" d="M226.5,104.9l-7.7-1.4c-0.5-0.1-0.9-0.6-0.8-1.1l0,0c0.1-0.5,0.6-0.9,1.1-0.8l7.7,1.4
									c0.5,0.1,0.9,0.6,0.8,1.1l0,0C227.5,104.6,227,105,226.5,104.9z"/>
							</g>
							<g>
								<path class="st14" d="M227.7,112.6c-0.2,1.1-1.3,1.9-2.4,1.6c-1.1-0.2-1.9-1.3-1.6-2.4c0.2-1.1,1.3-1.9,2.4-1.6
									C227.1,110.4,227.9,111.5,227.7,112.6z"/>
								<path class="st25" d="M225,113l-7.7-1.4c-0.5-0.1-0.9-0.6-0.8-1.1l0,0c0.1-0.5,0.6-0.9,1.1-0.8l7.7,1.4
									c0.5,0.1,0.9,0.6,0.8,1.1l0,0C226,112.7,225.5,113.1,225,113z"/>
							</g>
							<g>
								<path class="st14" d="M226.2,120.7c-0.2,1.1-1.3,1.9-2.4,1.6c-1.1-0.2-1.9-1.3-1.6-2.4c0.2-1.1,1.3-1.9,2.4-1.6
									C225.6,118.5,226.4,119.5,226.2,120.7z"/>
								<path class="st25" d="M223.5,121.1l-7.7-1.4c-0.5-0.1-0.9-0.6-0.8-1.1l0,0c0.1-0.5,0.6-0.9,1.1-0.8l7.7,1.4
									c0.5,0.1,0.9,0.6,0.8,1.1l0,0C224.5,120.8,224,121.2,223.5,121.1z"/>
							</g>
							<g>
								<path class="st14" d="M224.7,128.7c-0.2,1.1-1.3,1.9-2.4,1.6c-1.1-0.2-1.9-1.3-1.6-2.4c0.2-1.1,1.3-1.9,2.4-1.6
									C224.1,126.5,224.9,127.6,224.7,128.7z"/>
								<path class="st25" d="M222,129.1l-7.7-1.4c-0.5-0.1-0.9-0.6-0.8-1.1l0,0c0.1-0.5,0.6-0.9,1.1-0.8l7.7,1.4
									c0.5,0.1,0.9,0.6,0.8,1.1l0,0C223,128.9,222.5,129.2,222,129.1z"/>
							</g>
							<g>
								<path class="st14" d="M223.2,136.8c-0.2,1.1-1.3,1.9-2.4,1.6c-1.1-0.2-1.9-1.3-1.6-2.4c0.2-1.1,1.3-1.9,2.4-1.6
									C222.6,134.6,223.4,135.7,223.2,136.8z"/>
								<path class="st25" d="M220.5,137.2l-7.7-1.4c-0.5-0.1-0.9-0.6-0.8-1.1l0,0c0.1-0.5,0.6-0.9,1.1-0.8l7.7,1.4
									c0.5,0.1,0.9,0.6,0.8,1.1l0,0C221.5,137,221,137.3,220.5,137.2z"/>
							</g>
							<g>
								<path class="st14" d="M221.7,144.9c-0.2,1.1-1.3,1.9-2.4,1.6c-1.1-0.2-1.9-1.3-1.6-2.4c0.2-1.1,1.3-1.9,2.4-1.6
									C221.1,142.7,221.9,143.8,221.7,144.9z"/>
								<path class="st25" d="M219,145.3l-7.7-1.4c-0.5-0.1-0.9-0.6-0.8-1.1l0,0c0.1-0.5,0.6-0.9,1.1-0.8l7.7,1.4
									c0.5,0.1,0.9,0.6,0.8,1.1l0,0C220,145,219.5,145.4,219,145.3z"/>
							</g>
							<g>
								<path class="st14" d="M220.2,153c-0.2,1.1-1.3,1.9-2.4,1.6c-1.1-0.2-1.9-1.3-1.6-2.4c0.2-1.1,1.3-1.9,2.4-1.6
									C219.6,150.8,220.4,151.9,220.2,153z"/>
								<path class="st25" d="M217.5,153.4l-7.7-1.4c-0.5-0.1-0.9-0.6-0.8-1.1l0,0c0.1-0.5,0.6-0.9,1.1-0.8l7.7,1.4
									c0.5,0.1,0.9,0.6,0.8,1.1l0,0C218.5,153.1,218,153.5,217.5,153.4z"/>
							</g>
							<g>
								<path class="st14" d="M218.7,161c-0.2,1.1-1.3,1.9-2.4,1.6c-1.1-0.2-1.9-1.3-1.6-2.4c0.2-1.1,1.3-1.9,2.4-1.6
									C218.1,158.9,218.9,159.9,218.7,161z"/>
								<path class="st25" d="M216,161.4l-7.7-1.4c-0.5-0.1-0.9-0.6-0.8-1.1l0,0c0.1-0.5,0.6-0.9,1.1-0.8l7.7,1.4
									c0.5,0.1,0.9,0.6,0.8,1.1l0,0C217,161.2,216.5,161.5,216,161.4z"/>
							</g>
							<g>
								<path class="st14" d="M217.2,169.1c-0.2,1.1-1.3,1.9-2.4,1.6c-1.1-0.2-1.9-1.3-1.6-2.4c0.2-1.1,1.3-1.9,2.4-1.6
									C216.6,166.9,217.4,168,217.2,169.1z"/>
								<path class="st25" d="M214.5,169.5l-7.7-1.4c-0.5-0.1-0.9-0.6-0.8-1.1l0,0c0.1-0.5,0.6-0.9,1.1-0.8l7.7,1.4
									c0.5,0.1,0.9,0.6,0.8,1.1l0,0C215.5,169.3,215,169.6,214.5,169.5z"/>
							</g>
							<g>
								<path class="st14" d="M215.7,177.2c-0.2,1.1-1.3,1.9-2.4,1.6c-1.1-0.2-1.9-1.3-1.6-2.4c0.2-1.1,1.3-1.9,2.4-1.6
									C215.1,175,215.9,176.1,215.7,177.2z"/>
								<path class="st25" d="M213,177.6l-7.7-1.4c-0.5-0.1-0.9-0.6-0.8-1.1l0,0c0.1-0.5,0.6-0.9,1.1-0.8l7.7,1.4
									c0.5,0.1,0.9,0.6,0.8,1.1l0,0C214,177.3,213.5,177.7,213,177.6z"/>
							</g>
							<g>
								<path class="st14" d="M214.2,185.3c-0.2,1.1-1.3,1.9-2.4,1.6c-1.1-0.2-1.9-1.3-1.6-2.4c0.2-1.1,1.3-1.9,2.4-1.6
									C213.6,183.1,214.4,184.2,214.2,185.3z"/>
								<path class="st25" d="M211.5,185.7l-7.7-1.4c-0.5-0.1-0.9-0.6-0.8-1.1l0,0c0.1-0.5,0.6-0.9,1.1-0.8l7.7,1.4
									c0.5,0.1,0.9,0.6,0.8,1.1l0,0C212.5,185.4,212,185.8,211.5,185.7z"/>
							</g>
							<g>
								<path class="st14" d="M212.7,193.4c-0.2,1.1-1.3,1.9-2.4,1.6c-1.1-0.2-1.9-1.3-1.6-2.4c0.2-1.1,1.3-1.9,2.4-1.6
									C212.1,191.2,212.9,192.2,212.7,193.4z"/>
								<path class="st25" d="M210,193.7l-7.7-1.4c-0.5-0.1-0.9-0.6-0.8-1.1l0,0c0.1-0.5,0.6-0.9,1.1-0.8l7.7,1.4
									c0.5,0.1,0.9,0.6,0.8,1.1l0,0C211,193.5,210.5,193.8,210,193.7z"/>
							</g>
						</g>
					</g>
					<path class="st26" d="M309.5,95.4l-38.3-7.1l-22.1,119.1l38.3,7.1c3.7,0.7,7.2-1.7,7.9-5.4l19.6-105.9
						C315.6,99.6,313.2,96.1,309.5,95.4z"/>
				</g>
				<g>
					<polygon class="st27" points="280.7,126.4 274.1,125.7 267.4,125 268.1,117.9 276,106.2 281.4,119.2 					"/>
					
						<rect x="265.3" y="118.4" transform="matrix(0.9951 9.922325e-02 -9.922325e-02 0.9951 15.9038 -26.2624)" class="st9" width="13.4" height="56.7"/>
					<polygon class="st9" points="277.8,110.6 276,106.2 273.4,110.1 					"/>
					<polygon class="st28" points="276,106.2 268.1,117.9 267.4,125 262.5,174.3 269.2,175 					"/>
				</g>
				<g>
					<polygon class="st27" points="299.9,137 293.5,135 287.1,133 289.3,126.2 299.4,116.4 302,130.2 					"/>
					
						<rect x="280.5" y="126.9" transform="matrix(0.9541 0.2994 -0.2994 0.9541 59.6521 -78.8625)" class="st10" width="13.4" height="56.7"/>
					<polygon class="st10" points="300.3,121 299.4,116.4 296,119.6 					"/>
					<polygon class="st28" points="299.4,116.4 289.3,126.2 287.1,133 272.3,180.3 278.7,182.3 					"/>
				</g>
			</g>
			<path class="st16" d="M317.6,324.1h-143V197.7c0-34.8,28.2-62.9,62.9-62.9h17.1c34.8,0,62.9,28.2,62.9,62.9V324.1z"/>
			<path class="st6" d="M201.6,284.3c-4.7,0-8.4-3.8-8.4-8.4v-16.9c0-18.4,15-33.3,33.3-33.3h39.2c18.4,0,33.3,15,33.3,33.3v16.9
				c0,4.7-3.8,8.4-8.4,8.4H201.6z"/>
			<g>
				<polygon class="st27" points="285.8,225.9 279.3,224.7 272.7,223.4 274,216.4 282.9,205.4 287.2,218.9 				"/>
				
					<rect x="268.6" y="217.1" transform="matrix(0.9826 0.1855 -0.1855 0.9826 50.3181 -46.8201)" class="st13" width="13.4" height="56.7"/>
				<polygon class="st13" points="284.3,209.9 282.9,205.4 279.9,209.1 				"/>
				<polygon class="st28" points="282.9,205.4 274,216.4 272.7,223.4 263.5,272.1 270.1,273.3 				"/>
			</g>
			<g>
				<path class="st6" d="M274.8,196.1h-57.4c-5.7,0-10.3-4.6-10.3-10.3v-15.4c0-5.7,4.6-10.3,10.3-10.3h57.4
					c5.7,0,10.3,4.6,10.3,10.3v15.4C285.1,191.4,280.4,196.1,274.8,196.1z"/>
				<rect x="207.1" y="172.9" class="st10" width="77.9" height="3.2"/>
			</g>
			<path class="st10" d="M208.2,173.2c-1.7,0-3.1,1.4-3.1,3.1v7.7c0,1.7,1.4,3.1,3.1,3.1c1.7,0,3.1-1.4,3.1-3.1v-7.7
				C211.3,174.6,209.9,173.2,208.2,173.2z M208.2,184.9c-0.9,0-1.6-0.7-1.6-1.6s0.7-1.6,1.6-1.6c0.9,0,1.6,0.7,1.6,1.6
				S209.1,184.9,208.2,184.9z"/>
			<g>
				<polygon class="st27" points="265.8,217.4 259.1,217.5 252.4,217.7 252.2,210.5 258.6,198 265.6,210.2 				"/>
				
					<rect x="252.9" y="210.4" transform="matrix(0.9997 -2.268099e-02 2.268099e-02 0.9997 -5.3471 5.9485)" class="st17" width="13.4" height="56.7"/>
				<polygon class="st17" points="261,202.1 258.6,198 256.5,202.2 				"/>
				<polygon class="st28" points="258.6,198 252.2,210.5 252.4,217.7 253.5,267.2 260.2,267 				"/>
			</g>
			<path class="st6" d="M197.5,242.5c-2.8,4.9-4.3,10.5-4.3,16.4v16.9c0,4.7,3.8,8.4,8.4,8.4h89c4.7,0,8.4-3.8,8.4-8.4v-16.9
				c0-6-1.6-11.6-4.3-16.4H197.5z"/>
			<path class="st10" d="M196.4,244.5h99.4c-0.5-1.1-1.1-2.2-1.8-3.2h-95.8C197.5,242.4,196.9,243.4,196.4,244.5z"/>
			<path class="st10" d="M197.4,242c-1.7,0-3.1,1.4-3.1,3.1v7.7c0,1.7,1.4,3.1,3.1,3.1c1.7,0,3.1-1.4,3.1-3.1v-7.7
				C200.5,243.4,199.1,242,197.4,242z M197.4,253.7c-0.9,0-1.6-0.7-1.6-1.6c0-0.9,0.7-1.6,1.6-1.6c0.9,0,1.6,0.7,1.6,1.6
				C199,253,198.3,253.7,197.4,253.7z"/>
			<path class="st29" d="M245.7,134.8h-8.2c-34.8,0-62.9,28.2-62.9,62.9v126.4h71.1V134.8z"/>
			<path class="st10" d="M175.7,184.6c-1.7,0-3.1,1.4-3.1,3.1v7.7c0,1.7,1.4,3.1,3.1,3.1c1.7,0,3.1-1.4,3.1-3.1v-7.7
				C178.8,186,177.4,184.6,175.7,184.6z M175.7,196.4c-0.9,0-1.6-0.7-1.6-1.6c0-0.9,0.7-1.6,1.6-1.6c0.9,0,1.6,0.7,1.6,1.6
				C177.3,195.6,176.6,196.4,175.7,196.4z"/>
			<g>
				<g>
					<polygon class="st27" points="244.8,225.3 238.3,227 231.8,228.6 230,221.7 233.4,208 243,218.3 					"/>
					<polygon class="st26" points="236.6,211.5 233.4,208 232.3,212.6 					"/>
				</g>
				<g>
					<polygon class="st26" points="248.9,241.3 243,218.3 230,221.7 235.1,241.3 					"/>
				</g>
				<polygon class="st28" points="235.1,241.3 242,241.3 233.4,208 230,221.7 231.8,228.6 				"/>
			</g>
		</g>
		<g>
			<path class="st23" d="M143.2,257.3L56,264.5L45.7,139.3l87.2-7.2c3.8-0.3,7.2,2.5,7.5,6.4l9.1,111.2
				C149.9,253.7,147.1,257,143.2,257.3z"/>
			<g>
				<g>
					<path class="st30" d="M142,257.5l-87.2,7.2L44.5,139.5l87.2-7.2c3.8-0.3,7.2,2.5,7.5,6.4l9.1,111.2
						C148.7,253.9,145.8,257.2,142,257.5z"/>
					<g>
						<g>
							<path class="st14" d="M52.5,146.4c0.1,1.2-0.8,2.2-1.9,2.3c-1.2,0.1-2.2-0.8-2.3-1.9c-0.1-1.2,0.8-2.2,1.9-2.3
								C51.3,144.3,52.4,145.2,52.5,146.4z"/>
							<path class="st25" d="M49.9,147.5l-8.1,0.7c-0.6,0-1-0.4-1.1-0.9v0c0-0.6,0.4-1,0.9-1.1l8.1-0.7c0.6,0,1,0.4,1.1,0.9l0,0
								C50.9,146.9,50.5,147.4,49.9,147.5z"/>
						</g>
						<g>
							<path class="st14" d="M53.1,154.8c0.1,1.2-0.8,2.2-1.9,2.3c-1.2,0.1-2.2-0.8-2.3-1.9c-0.1-1.2,0.8-2.2,1.9-2.3
								S53.1,153.7,53.1,154.8z"/>
							<path class="st25" d="M50.6,156l-8.1,0.7c-0.6,0-1-0.4-1.1-0.9l0,0c0-0.6,0.4-1,0.9-1.1l8.1-0.7c0.6,0,1,0.4,1.1,0.9l0,0
								C51.6,155.4,51.1,155.9,50.6,156z"/>
						</g>
						<g>
							<path class="st14" d="M53.8,163.3c0.1,1.2-0.8,2.2-1.9,2.3c-1.2,0.1-2.2-0.8-2.3-1.9c-0.1-1.2,0.8-2.2,1.9-2.3
								C52.7,161.3,53.7,162.2,53.8,163.3z"/>
							<path class="st25" d="M51.3,164.5l-8.1,0.7c-0.6,0-1-0.4-1.1-0.9l0,0c0-0.6,0.4-1,0.9-1.1l8.1-0.7c0.6,0,1,0.4,1.1,0.9l0,0
								C52.3,163.9,51.8,164.4,51.3,164.5z"/>
						</g>
						<g>
							<path class="st14" d="M54.5,171.8c0.1,1.2-0.8,2.2-1.9,2.3c-1.2,0.1-2.2-0.8-2.3-1.9c-0.1-1.2,0.8-2.2,1.9-2.3
								C53.4,169.8,54.4,170.6,54.5,171.8z"/>
							<path class="st25" d="M52,172.9l-8.1,0.7c-0.6,0-1-0.4-1.1-0.9l0,0c0-0.6,0.4-1,0.9-1.1l8.1-0.7c0.6,0,1,0.4,1.1,0.9l0,0
								C53,172.4,52.5,172.9,52,172.9z"/>
						</g>
						<g>
							<path class="st14" d="M55.2,180.3c0.1,1.2-0.8,2.2-1.9,2.3c-1.2,0.1-2.2-0.8-2.3-1.9c-0.1-1.2,0.8-2.2,1.9-2.3
								C54.1,178.3,55.1,179.1,55.2,180.3z"/>
							<path class="st25" d="M52.7,181.4l-8.1,0.7c-0.6,0-1-0.4-1.1-0.9l0,0c0-0.6,0.4-1,0.9-1.1l8.1-0.7c0.6,0,1,0.4,1.1,0.9l0,0
								C53.7,180.9,53.2,181.4,52.7,181.4z"/>
						</g>
						<g>
							<path class="st14" d="M55.9,188.8c0.1,1.2-0.8,2.2-1.9,2.3c-1.2,0.1-2.2-0.8-2.3-1.9c-0.1-1.2,0.8-2.2,1.9-2.3
								C54.8,186.7,55.8,187.6,55.9,188.8z"/>
							<path class="st25" d="M53.4,189.9l-8.1,0.7c-0.6,0-1-0.4-1.1-0.9l0,0c0-0.6,0.4-1,0.9-1.1l8.1-0.7c0.6,0,1,0.4,1.1,0.9l0,0
								C54.3,189.4,53.9,189.9,53.4,189.9z"/>
						</g>
						<g>
							<path class="st14" d="M56.6,197.3c0.1,1.2-0.8,2.2-1.9,2.3c-1.2,0.1-2.2-0.8-2.3-1.9c-0.1-1.2,0.8-2.2,1.9-2.3
								S56.5,196.1,56.6,197.3z"/>
							<path class="st25" d="M54.1,198.4l-8.1,0.7c-0.6,0-1-0.4-1.1-0.9l0,0c0-0.6,0.4-1,0.9-1.1l8.1-0.7c0.6,0,1,0.4,1.1,0.9l0,0
								C55,197.9,54.6,198.3,54.1,198.4z"/>
						</g>
						<g>
							<path class="st14" d="M57.3,205.8c0.1,1.2-0.8,2.2-1.9,2.3c-1.2,0.1-2.2-0.8-2.3-1.9c-0.1-1.2,0.8-2.2,1.9-2.3
								C56.2,203.7,57.2,204.6,57.3,205.8z"/>
							<path class="st25" d="M54.8,206.9l-8.1,0.7c-0.6,0-1-0.4-1.1-0.9l0,0c0-0.6,0.4-1,0.9-1.1l8.1-0.7c0.6,0,1,0.4,1.1,0.9l0,0
								C55.7,206.3,55.3,206.8,54.8,206.9z"/>
						</g>
						<g>
							<path class="st14" d="M58,214.2c0.1,1.2-0.8,2.2-1.9,2.3c-1.2,0.1-2.2-0.8-2.3-1.9c-0.1-1.2,0.8-2.2,1.9-2.3
								C56.9,212.2,57.9,213.1,58,214.2z"/>
							<path class="st25" d="M55.5,215.4l-8.1,0.7c-0.6,0-1-0.4-1.1-0.9l0,0c0-0.6,0.4-1,0.9-1.1l8.1-0.7c0.6,0,1,0.4,1.1,0.9l0,0
								C56.4,214.8,56,215.3,55.5,215.4z"/>
						</g>
						<g>
							<path class="st14" d="M58.7,222.7c0.1,1.2-0.8,2.2-1.9,2.3c-1.2,0.1-2.2-0.8-2.3-1.9c-0.1-1.2,0.8-2.2,1.9-2.3
								C57.6,220.7,58.6,221.6,58.7,222.7z"/>
							<path class="st25" d="M56.2,223.8l-8.1,0.7c-0.6,0-1-0.4-1.1-0.9l0,0c0-0.6,0.4-1,0.9-1.1l8.1-0.7c0.6,0,1,0.4,1.1,0.9l0,0
								C57.1,223.3,56.7,223.8,56.2,223.8z"/>
						</g>
						<g>
							<path class="st14" d="M59.4,231.2c0.1,1.2-0.8,2.2-1.9,2.3c-1.2,0.1-2.2-0.8-2.3-1.9c-0.1-1.2,0.8-2.2,1.9-2.3
								C58.3,229.2,59.3,230,59.4,231.2z"/>
							<path class="st25" d="M56.9,232.3l-8.1,0.7c-0.6,0-1-0.4-1.1-0.9l0,0c0-0.6,0.4-1,0.9-1.1l8.1-0.7c0.6,0,1,0.4,1.1,0.9l0,0
								C57.8,231.8,57.4,232.3,56.9,232.3z"/>
						</g>
						<g>
							<path class="st14" d="M60.1,239.7c0.1,1.2-0.8,2.2-1.9,2.3s-2.2-0.8-2.3-1.9c-0.1-1.2,0.8-2.2,1.9-2.3S60,238.5,60.1,239.7z"
								/>
							<path class="st25" d="M57.5,240.8l-8.1,0.7c-0.6,0-1-0.4-1.1-0.9l0,0c0-0.6,0.4-1,0.9-1.1l8.1-0.7c0.6,0,1,0.4,1.1,0.9l0,0
								C58.5,240.3,58.1,240.8,57.5,240.8z"/>
						</g>
						<g>
							<path class="st14" d="M60.8,248.2c0.1,1.2-0.8,2.2-1.9,2.3s-2.2-0.8-2.3-1.9c-0.1-1.2,0.8-2.2,1.9-2.3
								C59.7,246.1,60.7,247,60.8,248.2z"/>
							<path class="st25" d="M58.2,249.3l-8.1,0.7c-0.6,0-1-0.4-1.1-0.9l0,0c0-0.6,0.4-1,0.9-1.1l8.1-0.7c0.6,0,1,0.4,1.1,0.9l0,0
								C59.2,248.8,58.8,249.3,58.2,249.3z"/>
						</g>
						<g>
							<path class="st14" d="M61.5,256.7c0.1,1.2-0.8,2.2-1.9,2.3c-1.2,0.1-2.2-0.8-2.3-1.9c-0.1-1.2,0.8-2.2,1.9-2.3
								C60.4,254.6,61.4,255.5,61.5,256.7z"/>
							<path class="st25" d="M58.9,257.8l-8.1,0.7c-0.6,0-1-0.4-1.1-0.9l0,0c0-0.6,0.4-1,0.9-1.1l8.1-0.7c0.6,0,1,0.4,1.1,0.9l0,0
								C59.9,257.2,59.5,257.7,58.9,257.8z"/>
						</g>
					</g>
				</g>
				<path class="st15" d="M131.7,132.3l-40.2,3.3l10.3,125.2l40.2-3.3c3.8-0.3,6.7-3.7,6.4-7.5l-9.1-111.2
					C138.9,134.8,135.5,132,131.7,132.3z"/>
			</g>
		</g>
		<g>
			<path class="st23" d="M137.1,276.9l-84,24.7L17.7,181.1l84-24.7c3.7-1.1,7.6,1,8.7,4.7l31.4,107.1
				C142.9,271.9,140.8,275.8,137.1,276.9z"/>
			<g>
				<g>
					<path class="st31" d="M135.9,277.4L52,302L16.6,181.5l84-24.7c3.7-1.1,7.6,1,8.7,4.7l31.4,107.1
						C141.8,272.4,139.6,276.3,135.9,277.4z"/>
					<g>
						<g>
							<path class="st14" d="M25.8,186.6c0.3,1.1-0.3,2.3-1.4,2.6c-1.1,0.3-2.3-0.3-2.6-1.4c-0.3-1.1,0.3-2.3,1.4-2.6
								C24.2,184.8,25.4,185.5,25.8,186.6z"/>
							<path class="st25" d="M23.5,188.2l-7.8,2.3c-0.5,0.2-1.1-0.2-1.3-0.7l0,0c-0.2-0.5,0.2-1.1,0.7-1.3l7.8-2.3
								c0.5-0.2,1.1,0.2,1.3,0.7l0,0C24.3,187.5,24,188,23.5,188.2z"/>
						</g>
						<g>
							<path class="st14" d="M28.2,194.8c0.3,1.1-0.3,2.3-1.4,2.6c-1.1,0.3-2.3-0.3-2.6-1.4c-0.3-1.1,0.3-2.3,1.4-2.6
								C26.6,193,27.8,193.6,28.2,194.8z"/>
							<path class="st25" d="M25.9,196.4l-7.8,2.3c-0.5,0.2-1.1-0.2-1.3-0.7l0,0c-0.2-0.5,0.2-1.1,0.7-1.3l7.8-2.3
								c0.5-0.2,1.1,0.2,1.3,0.7l0,0C26.7,195.6,26.4,196.2,25.9,196.4z"/>
						</g>
						<g>
							<path class="st14" d="M30.6,202.9c0.3,1.1-0.3,2.3-1.4,2.6c-1.1,0.3-2.3-0.3-2.6-1.4c-0.3-1.1,0.3-2.3,1.4-2.6
								C29,201.1,30.2,201.8,30.6,202.9z"/>
							<path class="st25" d="M28.3,204.5l-7.8,2.3c-0.5,0.2-1.1-0.2-1.3-0.7l0,0c-0.2-0.5,0.2-1.1,0.7-1.3l7.8-2.3
								c0.5-0.2,1.1,0.2,1.3,0.7l0,0C29.1,203.8,28.8,204.4,28.3,204.5z"/>
						</g>
						<g>
							<path class="st14" d="M32.9,211.1c0.3,1.1-0.3,2.3-1.4,2.6c-1.1,0.3-2.3-0.3-2.6-1.4c-0.3-1.1,0.3-2.3,1.4-2.6
								C31.4,209.3,32.6,210,32.9,211.1z"/>
							<path class="st25" d="M30.7,212.7l-7.8,2.3c-0.5,0.2-1.1-0.2-1.3-0.7l0,0c-0.2-0.5,0.2-1.1,0.7-1.3l7.8-2.3
								c0.5-0.2,1.1,0.2,1.3,0.7l0,0C31.5,212,31.2,212.5,30.7,212.7z"/>
						</g>
						<g>
							<path class="st14" d="M35.3,219.3c0.3,1.1-0.3,2.3-1.4,2.6c-1.1,0.3-2.3-0.3-2.6-1.4c-0.3-1.1,0.3-2.3,1.4-2.6
								C33.8,217.5,35,218.1,35.3,219.3z"/>
							<path class="st25" d="M33.1,220.9l-7.8,2.3c-0.5,0.2-1.1-0.2-1.3-0.7l0,0c-0.2-0.5,0.2-1.1,0.7-1.3l7.8-2.3
								c0.5-0.2,1.1,0.2,1.3,0.7l0,0C33.9,220.1,33.6,220.7,33.1,220.9z"/>
						</g>
						<g>
							<path class="st14" d="M37.7,227.4c0.3,1.1-0.3,2.3-1.4,2.6c-1.1,0.3-2.3-0.3-2.6-1.4c-0.3-1.1,0.3-2.3,1.4-2.6
								C36.2,225.7,37.4,226.3,37.7,227.4z"/>
							<path class="st25" d="M35.5,229l-7.8,2.3c-0.5,0.2-1.1-0.2-1.3-0.7l0,0c-0.2-0.5,0.2-1.1,0.7-1.3l7.8-2.3
								c0.5-0.2,1.1,0.2,1.3,0.7l0,0C36.3,228.3,36,228.9,35.5,229z"/>
						</g>
						<g>
							<path class="st14" d="M40.1,235.6c0.3,1.1-0.3,2.3-1.4,2.6c-1.1,0.3-2.3-0.3-2.6-1.4c-0.3-1.1,0.3-2.3,1.4-2.6
								C38.6,233.8,39.8,234.5,40.1,235.6z"/>
							<path class="st25" d="M37.9,237.2l-7.8,2.3c-0.5,0.2-1.1-0.2-1.3-0.7l0,0c-0.2-0.5,0.2-1.1,0.7-1.3l7.8-2.3
								c0.5-0.2,1.1,0.2,1.3,0.7l0,0C38.7,236.5,38.4,237.1,37.9,237.2z"/>
						</g>
						<g>
							<path class="st14" d="M42.5,243.8c0.3,1.1-0.3,2.3-1.4,2.6c-1.1,0.3-2.3-0.3-2.6-1.4c-0.3-1.1,0.3-2.3,1.4-2.6
								C41,242,42.2,242.6,42.5,243.8z"/>
							<path class="st25" d="M40.3,245.4l-7.8,2.3c-0.5,0.2-1.1-0.2-1.3-0.7l0,0c-0.2-0.5,0.2-1.1,0.7-1.3l7.8-2.3
								c0.5-0.2,1.1,0.2,1.3,0.7l0,0C41.1,244.7,40.8,245.2,40.3,245.4z"/>
						</g>
						<g>
							<path class="st14" d="M44.9,251.9c0.3,1.1-0.3,2.3-1.4,2.6c-1.1,0.3-2.3-0.3-2.6-1.4c-0.3-1.1,0.3-2.3,1.4-2.6
								C43.4,250.2,44.6,250.8,44.9,251.9z"/>
							<path class="st25" d="M42.7,253.5l-7.8,2.3c-0.5,0.2-1.1-0.2-1.3-0.7l0,0c-0.2-0.5,0.2-1.1,0.7-1.3l7.8-2.3
								c0.5-0.2,1.1,0.2,1.3,0.7l0,0C43.5,252.8,43.2,253.4,42.7,253.5z"/>
						</g>
						<g>
							<path class="st14" d="M47.3,260.1c0.3,1.1-0.3,2.3-1.4,2.6c-1.1,0.3-2.3-0.3-2.6-1.4c-0.3-1.1,0.3-2.3,1.4-2.6
								C45.8,258.3,47,259,47.3,260.1z"/>
							<path class="st25" d="M45.1,261.7l-7.8,2.3c-0.5,0.2-1.1-0.2-1.3-0.7l0,0c-0.2-0.5,0.2-1.1,0.7-1.3l7.8-2.3
								c0.5-0.2,1.1,0.2,1.3,0.7l0,0C45.9,261,45.6,261.6,45.1,261.7z"/>
						</g>
						<g>
							<path class="st14" d="M49.7,268.3c0.3,1.1-0.3,2.3-1.4,2.6c-1.1,0.3-2.3-0.3-2.6-1.4c-0.3-1.1,0.3-2.3,1.4-2.6
								C48.2,266.5,49.4,267.1,49.7,268.3z"/>
							<path class="st25" d="M47.5,269.9l-7.8,2.3c-0.5,0.2-1.1-0.2-1.3-0.7l0,0c-0.2-0.5,0.2-1.1,0.7-1.3l7.8-2.3
								c0.5-0.2,1.1,0.2,1.3,0.7l0,0C48.3,269.2,48,269.7,47.5,269.9z"/>
						</g>
						<g>
							<path class="st14" d="M52.1,276.4c0.3,1.1-0.3,2.3-1.4,2.6c-1.1,0.3-2.3-0.3-2.6-1.4c-0.3-1.1,0.3-2.3,1.4-2.6
								C50.6,274.7,51.8,275.3,52.1,276.4z"/>
							<path class="st25" d="M49.9,278.1l-7.8,2.3c-0.5,0.2-1.1-0.2-1.3-0.7l0,0c-0.2-0.5,0.2-1.1,0.7-1.3l7.8-2.3
								c0.5-0.2,1.1,0.2,1.3,0.7l0,0C50.7,277.3,50.4,277.9,49.9,278.1z"/>
						</g>
						<g>
							<path class="st14" d="M54.5,284.6c0.3,1.1-0.3,2.3-1.4,2.6c-1.1,0.3-2.3-0.3-2.6-1.4c-0.3-1.1,0.3-2.3,1.4-2.6
								C53,282.8,54.2,283.5,54.5,284.6z"/>
							<path class="st25" d="M52.3,286.2l-7.8,2.3c-0.5,0.2-1.1-0.2-1.3-0.7l0,0c-0.2-0.5,0.2-1.1,0.7-1.3l7.8-2.3
								c0.5-0.2,1.1,0.2,1.3,0.7l0,0C53.1,285.5,52.8,286.1,52.3,286.2z"/>
						</g>
						<g>
							<path class="st14" d="M56.9,292.8c0.3,1.1-0.3,2.3-1.4,2.6c-1.1,0.3-2.3-0.3-2.6-1.4c-0.3-1.1,0.3-2.3,1.4-2.6
								C55.4,291,56.6,291.6,56.9,292.8z"/>
							<path class="st25" d="M54.7,294.4l-7.8,2.3c-0.5,0.2-1.1-0.2-1.3-0.7l0,0c-0.2-0.5,0.2-1.1,0.7-1.3l7.8-2.3
								c0.5-0.2,1.1,0.2,1.3,0.7l0,0C55.5,293.7,55.2,294.2,54.7,294.4z"/>
						</g>
					</g>
				</g>
				<path class="st9" d="M100.6,156.9l-38.7,11.4l35.4,120.5l38.7-11.4c3.7-1.1,5.8-5,4.7-8.7l-31.4-107.1
					C108.2,157.9,104.3,155.8,100.6,156.9z"/>
			</g>
		</g>
		<g>
			<path class="st6" d="M147.4,311.2l-47.8-10.1c-6.4-1.3-10.4-7.6-9.1-14l13.8-65.4c1.3-6.4,7.6-10.4,14-9.1l47.8,10.1
				c6.4,1.3,10.4,7.6,9.1,14l-13.8,65.4C160,308.5,153.7,312.5,147.4,311.2z"/>
			<path class="st32" d="M158.3,248.3l-43.2-9.1c-3.7-0.8-6.1-4.5-5.3-8.2l0.9-4.2c0.8-3.7,4.5-6.1,8.2-5.3l43.2,9.1
				c3.7,0.8,6.1,4.5,5.3,8.2l-0.9,4.2C165.7,246.7,162,249.1,158.3,248.3z"/>
			<g>
				<g>
					<path class="st16" d="M116.4,252.2c-0.6,2.9-3.5,4.8-6.4,4.2c-2.9-0.6-4.8-3.5-4.2-6.4c0.6-2.9,3.5-4.8,6.4-4.2
						C115.1,246.4,117,249.3,116.4,252.2z"/>
					<path class="st16" d="M131.7,255.5c-0.6,2.9-3.5,4.8-6.4,4.2s-4.8-3.5-4.2-6.4s3.5-4.8,6.4-4.2
						C130.5,249.7,132.3,252.5,131.7,255.5z"/>
					<path class="st16" d="M147.1,258.7c-0.6,2.9-3.5,4.8-6.4,4.2c-2.9-0.6-4.8-3.5-4.2-6.4c0.6-2.9,3.5-4.8,6.4-4.2
						C145.8,252.9,147.7,255.8,147.1,258.7z"/>
					<path class="st16" d="M162.5,262c-0.6,2.9-3.5,4.8-6.4,4.2c-2.9-0.6-4.8-3.5-4.2-6.4c0.6-2.9,3.5-4.8,6.4-4.2
						C161.2,256.2,163.1,259.1,162.5,262z"/>
				</g>
				<g>
					<path class="st16" d="M112.8,268.9c-0.6,2.9-3.5,4.8-6.4,4.2c-2.9-0.6-4.8-3.5-4.2-6.4c0.6-2.9,3.5-4.8,6.4-4.2
						C111.6,263.1,113.4,265.9,112.8,268.9z"/>
					<path class="st16" d="M128.2,272.1c-0.6,2.9-3.5,4.8-6.4,4.2c-2.9-0.6-4.8-3.5-4.2-6.4c0.6-2.9,3.5-4.8,6.4-4.2
						C127,266.3,128.8,269.2,128.2,272.1z"/>
					<path class="st16" d="M143.6,275.4c-0.6,2.9-3.5,4.8-6.4,4.2c-2.9-0.6-4.8-3.5-4.2-6.4c0.6-2.9,3.5-4.8,6.4-4.2
						C142.3,269.6,144.2,272.4,143.6,275.4z"/>
					
						<ellipse transform="matrix(0.298 -0.9546 0.9546 0.298 -157.0329 341.4719)" class="st16" cx="153.7" cy="277.5" rx="5.4" ry="5.4"/>
				</g>
				<g>
					
						<ellipse transform="matrix(0.2734 -0.9619 0.9619 0.2734 -197.9766 306.6817)" class="st16" cx="104" cy="284.4" rx="5.4" ry="5.4"/>
					<path class="st16" d="M124.7,288.8c-0.6,2.9-3.5,4.8-6.4,4.2c-2.9-0.6-4.8-3.5-4.2-6.4c0.6-2.9,3.5-4.8,6.4-4.2
						C123.4,283,125.3,285.8,124.7,288.8z"/>
					<path class="st16" d="M140,292c-0.6,2.9-3.5,4.8-6.4,4.2c-2.9-0.6-4.8-3.5-4.2-6.4c0.6-2.9,3.5-4.8,6.4-4.2
						C138.8,286.2,140.7,289.1,140,292z"/>
					<path class="st16" d="M155.4,295.3c-0.6,2.9-3.5,4.8-6.4,4.2c-2.9-0.6-4.8-3.5-4.2-6.4c0.6-2.9,3.5-4.8,6.4-4.2
						C154.2,289.5,156,292.3,155.4,295.3z"/>
				</g>
			</g>
			<path class="st11" d="M142.1,217.6l-23.7-5c-6.4-1.3-12.6,2.7-14,9.1l-13.8,65.4c-1.3,6.4,2.7,12.6,9.1,14l23.7,5L142.1,217.6z"
				/>
		</g>
		<g>
			<polygon class="st27" points="33.7,249.4 27.1,251.9 20.4,254.3 17.8,247.2 19.9,232.5 31.1,242.3 			"/>
			
				<rect x="27.7" y="242.9" transform="matrix(0.9386 -0.345 0.345 0.9386 -91.9686 28.7311)" class="st13" width="14.1" height="59.6"/>
			<polygon class="st13" points="23.6,235.8 19.9,232.5 19.2,237.4 			"/>
			<polygon class="st28" points="19.9,232.5 17.8,247.2 20.4,254.3 38.4,303.2 45,300.7 			"/>
		</g>
		<g>
			<polygon class="st27" points="60.7,240.8 53.7,241.5 46.7,242.2 46,234.6 51.7,221 60,233.3 			"/>
			
				<rect x="48.8" y="233.8" transform="matrix(0.9953 -9.668289e-02 9.668289e-02 0.9953 -25.2277 6.6376)" class="st16" width="14.1" height="59.6"/>
			<polygon class="st16" points="54.5,225.1 51.7,221 49.8,225.5 			"/>
			<polygon class="st28" points="51.7,221 46,234.6 46.7,242.2 51.8,294 58.8,293.3 			"/>
		</g>
		<g>
			<polygon class="st27" points="86.8,240.7 79.8,240 72.8,239.2 73.6,231.7 82,219.5 87.6,233.2 			"/>
			
				<rect x="70.4" y="232.3" transform="matrix(0.9942 0.1077 -0.1077 0.9942 28.6653 -6.8128)" class="st2" width="14.1" height="59.6"/>
			<polygon class="st2" points="83.9,224.1 82,219.5 79.2,223.6 			"/>
			<polygon class="st28" points="82,219.5 73.6,231.7 72.8,239.2 67.2,291 74.2,291.7 			"/>
		</g>
	</g>
</g>
</svg>
