<?xml version="1.0" encoding="utf-8"?>
<!-- Generator: Adobe Illustrator 21.0.2, SVG Export Plug-In . SVG Version: 6.00 Build 0)  -->
<svg version="1.1" id="Layer_1" xmlns="http://www.w3.org/2000/svg" xmlns:xlink="http://www.w3.org/1999/xlink" x="0px" y="0px"
	 viewBox="0 0 240 340" style="enable-background:new 0 0 240 340;" xml:space="preserve">
<style type="text/css">
	.st0{fill:#F285B9;}
	.st1{fill:#EA348B;}
	.st2{fill:#FFE98F;}
	.st3{fill:#FFB9A7;}
	.st4{fill:#50412E;}
	.st5{fill:#FFC170;}
</style>
<path id="XMLID_2094_" class="st0" d="M139.9,250h-18.7h-18.7c-34,0-61.6,27.6-61.6,61.6v27.7h80.3h80.3v-27.7
	C201.5,277.6,173.9,250,139.9,250z"/>
<g id="XMLID_2095_">
	<path id="XMLID_2096_" class="st1" d="M121.1,250h-18.7c-34,0-61.6,27.6-61.6,61.6v27.7h80.3V250z"/>
</g>
<g id="XMLID_2097_">
	<path id="XMLID_2098_" class="st2" d="M147.9,250c0,14.8-12,26.8-26.8,26.8l0,0c-14.8,0-26.8-12-26.8-26.8v-26.8
		c0-14.8,12-26.8,26.8-26.8l0,0c14.8,0,26.8,12,26.8,26.8V250z"/>
</g>
<path id="XMLID_2099_" class="st3" d="M121.1,303.5c-19.7,0-35.7,16-35.7,35.7h35.7h35.7C156.8,319.5,140.9,303.5,121.1,303.5z"/>
<g id="XMLID_2100_">
	<path id="XMLID_2101_" class="st0" d="M121.1,303.5c-19.7,0-35.7,16-35.7,35.7h35.7V303.5z"/>
</g>
<g id="XMLID_2102_">
	<path id="XMLID_2103_" d="M134.5,71.4c0-29.6,24-53.6,53.6-53.6c0.7,0,1.5,0,2.2,0.1C181.3,7,167.6,0,152.4,0
		c-27.1,0-49.1,22-49.1,49.1v40.2h31.2V71.4z"/>
	<g id="XMLID_2104_">
		<circle id="XMLID_98_" class="st0" cx="121.1" cy="42.9" r="26.8"/>
	</g>
</g>
<g id="XMLID_2105_">
	<path id="XMLID_2106_" class="st4" d="M40.8,160.7v62.5c0,0-17.9-17.9-17.9-62.5H40.8z"/>
</g>
<g id="XMLID_2107_">
	<path id="XMLID_2108_" d="M201.5,160.7v62.5c0,0,17.9-17.9,17.9-62.5H201.5z"/>
</g>
<path id="XMLID_2109_" class="st4" d="M121.1,35.7c-12.6,0-24.6,2.4-35.7,6.7c-36.6,14.3-62.5,49.9-62.5,91.5v35.7h62.5h133.9v-35.7
	C219.3,79.6,175.4,35.7,121.1,35.7z"/>
<path id="XMLID_2110_" d="M85.4,169.6V42.4c11.1-4.3,23.1-6.7,35.7-6.7c54.3,0,98.2,43.9,98.2,98.2v35.7H85.4z"/>
<g id="XMLID_2111_">
	<ellipse id="XMLID_2112_" class="st2" cx="121.1" cy="156.2" rx="89.3" ry="93.7"/>
</g>
<g id="XMLID_2124_">
	<path id="XMLID_2125_" class="st5" d="M121.1,239.3c-20.1,0-39.4-3.9-57.1-11c15.4,13.6,35.4,21.7,57.1,21.7s41.6-8.1,57.1-21.7
		C160.5,235.3,141.2,239.3,121.1,239.3z"/>
</g>
<g id="XMLID_2126_">
	<circle id="XMLID_2127_" class="st2" cx="31.9" cy="169.6" r="17.9"/>
</g>
<g id="XMLID_2128_">
	<circle id="XMLID_2129_" class="st2" cx="210.4" cy="169.6" r="17.9"/>
</g>
<g id="XMLID_2130_">
	<path id="XMLID_2131_" class="st4" d="M31.9,151.8c0,0,53.6-17.9,53.6-71.4l8.9-17.9l-8.9-8.9c0,0-36.2,32-44.6,44.6
		C22.9,125,31.9,151.8,31.9,151.8z"/>
</g>
<g id="XMLID_2132_">
	<path id="XMLID_2133_" d="M210.4,151.8c0,0-107.1-8.9-125-71.4V44.6l63.8,6.7l51.3,30.4l14.3,36.6L210.4,151.8z"/>
</g>
</svg>
