<?xml version="1.0" encoding="utf-8"?>
<!-- Generator: Adobe Illustrator 22.0.1, SVG Export Plug-In . SVG Version: 6.00 Build 0)  -->
<svg version="1.1" id="Capa_1" xmlns="http://www.w3.org/2000/svg" xmlns:xlink="http://www.w3.org/1999/xlink" x="0px" y="0px"
	 viewBox="0 0 469.3 469.3" style="enable-background:new 0 0 469.3 469.3;" xml:space="preserve">
<style type="text/css">
	.st0{fill:#0084CB;}
</style>
<g>
	<g>
		<path class="st0" d="M220.1,141.7L175,186.8c-16.6,16.6-33.3,33.2-49.9,50c-3.9,4-6.8,9.3-8,14.5c-6,27.4-11.8,54.9-17.6,82.3
			l-3.2,15.2c-1.5,7.4,0.5,14.8,5.5,19.8c3.9,3.9,9.3,6.1,15,6.1c1.6,0,3.2-0.2,4.8-0.5l16.7-3.5c26.6-5.6,53.3-11.3,79.9-16.8
			c6.2-1.3,11.4-4.1,15.9-8.5c74.6-74.7,149.3-149.4,223.9-223.9c5.5-5.5,8.5-12.1,9.3-20.1c0.1-1.3,0-2.7-0.3-3.9
			c-0.5-1.9-0.9-3.9-1.3-5.8c-1-4.8-2.2-10.4-4.5-15.7l0,0c-14-31.9-37.1-54.7-68.8-67.5c-6.4-2.6-13.1-3.4-19-4.2l-1.6-0.2
			c-8.5-1-16.3,1.8-23.1,8.6C306,55.8,263,98.8,220.1,141.7z M368.7,27.1c0.2,0,0.3,0,0.5,0l1.6,0.2c4.9,0.6,9.5,1.1,13.1,2.7
			c25.8,10.4,44.8,29.1,56.3,55.3c1.3,3,2.2,6.9,3,11c0.3,1.5,0.7,3,0.9,4.6c-0.4,1.7-1,2.8-2.4,4.1
			c-74.7,74.5-149.4,149.3-224,223.9c-1.2,1.2-2.4,1.8-4.1,2.2c-26.7,5.6-53.3,11.2-80,16.8l-14.1,2.9l2.7-12.4
			c5.8-27.3,11.6-54.8,17.5-82.1c0.2-0.9,0.9-2.2,1.8-3.1c16.5-16.7,33-33.3,49.7-49.9l45.1-45.1c43-43,86-86,129-129.1
			C367.1,27.4,368,27.1,368.7,27.1z"/>
		<path class="st0" d="M38.7,107.5h165.8c6.5,0,11.7-5.2,11.7-11.7s-5.2-11.7-11.7-11.7H38.7c-20.4,0-36.9,16.6-36.9,36.9V432
			c0,20.4,16.6,36.9,36.9,36.9h310.8c20.4,0,36.9-16.6,36.9-36.9V272.9c0-6.5-5.2-11.7-11.7-11.7s-11.7,5.2-11.7,11.7V432
			c0,7.5-6.2,13.7-13.7,13.7H38.7c-7.5,0-13.7-6.2-13.7-13.7V121.2C25,113.7,31.2,107.5,38.7,107.5z"/>
	</g>
</g>
</svg>
