<?xml version="1.0" encoding="UTF-8"?>
<svg width="45px" height="52px" viewBox="0 0 45 52" version="1.1" xmlns="http://www.w3.org/2000/svg" xmlns:xlink="http://www.w3.org/1999/xlink">
    <!-- Generator: Sketch 48.2 (47327) - http://www.bohemiancoding.com/sketch -->
    <title>002-book copy</title>
    <desc>Created with Sketch.</desc>
    <defs></defs>
    <g id="Resultados-de-busqueda" stroke="none" stroke-width="1" fill="none" fill-rule="evenodd" transform="translate(-57.000000, -608.000000)" opacity="0.5">
        <g id="002-book-copy" transform="translate(57.000000, 608.000000)" fill="#00639E" fill-rule="nonzero">
            <path d="M43.4374103,0 L8.16316143,0 C3.73782511,0 0.15588565,3.55631166 0.0918161435,7.96560538 L0.0790022422,7.94956278 L0.0790022422,43.2238117 C0.0790022422,47.6875897 3.69938341,51.3080717 8.16326233,51.3080717 L35.4206502,51.3080717 C37.1907848,51.3080717 38.5600561,49.8714013 38.5600561,48.1013677 L38.5600561,14.43037 C38.5600561,13.5453027 37.9090695,12.8270179 37.0240022,12.8270179 L8.16316143,12.8270179 C5.47264574,12.8270179 3.28570628,10.7714462 3.28570628,8.08426009 C3.28570628,5.39374439 5.47274664,3.20680493 8.16316143,3.20680493 L41.7667601,3.20680493 L41.7667601,40.0845067 C41.7667601,40.9663453 42.5524439,41.6878587 43.4375112,41.6878587 C44.3225785,41.6878587 44.973565,40.9663453 44.973565,40.0845067 L44.973565,1.60335202 C44.9734641,0.718284753 44.3224776,0 43.4374103,0 Z M8.16316143,16.033722 L35.3563789,16.033722 L35.4236771,48.1012668 L8.16639013,48.1012668 C5.47274664,48.1012668 3.28570628,45.9142265 3.28570628,43.2238117 L3.28570628,14.4656839 C4.63257848,15.4533632 6.3160426,16.033722 8.16316143,16.033722 Z" id="Shape"></path>
        </g>
    </g>
</svg>