<svg xmlns="http://www.w3.org/2000/svg" width="21.189" height="23.311" viewBox="0 0 21.189 23.311"><defs><style>.a,.e{fill:#2a76a9;}.b{fill:#4989b6;}.c{fill:none;}.d{fill:#e1ebf3;}.e{stroke:#2a76a9;stroke-linecap:round;stroke-linejoin:round;}.f{fill:#679dc2;}</style></defs><g transform="translate(0 0)"><path class="a" d="M19.278,5.23a9.558,9.558,0,0,0-2.378.3c-1.815.409-4.173,1.092-6.3.67a4.092,4.092,0,0,0,.81,3.134A9.564,9.564,0,0,0,9.7,14.808v5H28.856v-5A9.578,9.578,0,0,0,19.278,5.23Z" transform="translate(-8.692 -5.23)"/><g transform="translate(1.872)"><path class="b" d="M19.7,5.23a9.558,9.558,0,0,0-2.378.3c-1.815.409-4.173,1.092-6.3.67a4.574,4.574,0,0,0,.321,2.317,17.153,17.153,0,0,0,5.981-.737,9.571,9.571,0,0,1,11.956,9.29V14.808A9.578,9.578,0,0,0,19.7,5.23Z" transform="translate(-10.99 -5.23)"/></g><path class="c" d="M19.278,5.23a9.558,9.558,0,0,0-2.378.3c-1.815.409-4.173,1.092-6.3.67a4.092,4.092,0,0,0,.81,3.134A9.564,9.564,0,0,0,9.7,14.808v5H28.856v-5A9.578,9.578,0,0,0,19.278,5.23Z" transform="translate(-8.692 -5.23)"/><path class="d" d="M29.377,22.291a1.8,1.8,0,0,0-1.34-1.507l-.576-.154A2.009,2.009,0,0,1,26,18.7V16.691a1.815,1.815,0,0,0-1.34-1.755,15.1,15.1,0,0,1-5.881,1.052,15.084,15.084,0,0,1-5.834-1.058,1.808,1.808,0,0,0-1.34,1.755v2.431a1.567,1.567,0,0,1-1.554,1.561A1.835,1.835,0,0,0,8.218,22.15a1.768,1.768,0,0,0,1.748,2.056h.107a8.821,8.821,0,0,0,17.455,0h.107a1.761,1.761,0,0,0,1.741-1.915Z" transform="translate(-8.195 -8.433)"/><path class="e" d="M16.09,25.24a.757.757,0,1,0,.75-.75A.757.757,0,0,0,16.09,25.24Z" transform="translate(-10.802 -11.591)"/><path class="e" d="M31.164,25.24a.757.757,0,1,1-.75-.75A.757.757,0,0,1,31.164,25.24Z" transform="translate(-15.28 -11.591)"/><g transform="translate(7.392 18.231)"><g transform="translate(0 0)"><path class="a" d="M19.659,32.45a.442.442,0,0,0-.328.147.435.435,0,0,0-.094.348,3.235,3.235,0,0,0,6.376,0,.435.435,0,0,0-.094-.348.442.442,0,0,0-.328-.147Z" transform="translate(-19.231 -32.45)"/><path class="f" d="M22.788,34.429a3.965,3.965,0,0,0-2.458.75,3.262,3.262,0,0,0,4.916,0A3.965,3.965,0,0,0,22.788,34.429Z" transform="translate(-19.594 -33.103)"/></g></g><g transform="translate(7.392 18.231)"><path class="c" d="M19.659,32.45a.442.442,0,0,0-.328.147.435.435,0,0,0-.094.348,3.235,3.235,0,0,0,6.376,0,.435.435,0,0,0-.094-.348.442.442,0,0,0-.328-.147Z" transform="translate(-19.231 -32.45)"/></g></g></svg>