<?xml version="1.0" encoding="utf-8"?>
<!-- Generator: Adobe Illustrator 22.0.1, SVG Export Plug-In . SVG Version: 6.00 Build 0)  -->
<svg version="1.1" id="Capa_1" xmlns="http://www.w3.org/2000/svg" xmlns:xlink="http://www.w3.org/1999/xlink" x="0px" y="0px"
	 viewBox="0 0 485.7 485.7" style="enable-background:new 0 0 485.7 485.7;" xml:space="preserve">
<g>
	<g>
		<g>
			<path style="fill:#0084CB;" d="M425,90.2H214.9c-13.6,0-24.7,11-24.7,24.6c0,13.6,11,24.7,24.7,24.7H425c13.6,0,24.7-11,24.7-24.7
				C449.7,101.2,438.6,90.2,425,90.2z"/>
			<path style="fill:#0084CB;" d="M425,241.4H214.9c-13.6,0-24.7,11-24.7,24.7c0,13.6,11,24.7,24.7,24.7H425c13.6,0,24.7-11.1,24.7-24.7
				C449.7,252.5,438.6,241.4,425,241.4z"/>
			<path style="fill:#0084CB;" d="M27.5,96c-10.4,8.8-11.7,24.3-3,34.8l36,42.6c4.7,5.6,11.6,8.8,18.8,8.8c0.6,0,1.2,0,1.8-0.1c7.9-0.6,15-4.9,19.2-11.6
				L165,65.6c7.2-11.6,3.6-26.8-8-33.9c-11.6-7.2-26.8-3.6-33.9,8l-46.8,75.8l-14-16.6C53.4,88.5,37.9,87.2,27.5,96z"/>
			<path style="fill:#0084CB;" d="M86.5,229.1c-20.4,0-37,16.6-37,37c0,20.4,16.6,37,37,37c20.4,0,37-16.6,37-37C123.5,245.7,106.9,229.1,86.5,229.1z"/>
			<path style="fill:#0084CB;" d="M425,389.4H214.9c-13.6,0-24.7,11-24.7,24.7c0,13.6,11,24.6,24.7,24.6H425c13.6,0,24.7-11,24.7-24.6
				C449.7,400.4,438.6,389.4,425,389.4z"/>
			<path style="fill:#0084CB;" d="M86.5,377.1c-20.4,0-37,16.6-37,37c0,20.4,16.6,37,37,37c20.4,0,37-16.6,37-37C123.5,393.6,106.9,377.1,86.5,377.1z"/>
		</g>
	</g>
</g>
</svg>
