<?xml version="1.0" encoding="utf-8"?>
<!-- Generator: Adobe Illustrator 21.0.2, SVG Export Plug-In . SVG Version: 6.00 Build 0)  -->
<svg version="1.1" id="Capa_1" xmlns="http://www.w3.org/2000/svg" xmlns:xlink="http://www.w3.org/1999/xlink" x="0px" y="0px"
	 viewBox="0 0 27 27" style="enable-background:new 0 0 27 27;" xml:space="preserve">
<style type="text/css">
	.st0{fill:#00A9FF;}
	.st1{fill:#FFFFFF;}
	.st2{fill:#F2F2F2;}
</style>
<g>
	<circle class="st0" cx="13.5" cy="13.5" r="12.7"/>
	<path class="st1" d="M13.5,1C20.4,1,26,6.6,26,13.5S20.4,26,13.5,26S1,20.4,1,13.5S6.6,1,13.5,1 M13.5,0C6,0,0,6,0,13.5
		S6,27,13.5,27S27,21,27,13.5S21,0,13.5,0L13.5,0z"/>
</g>
<g>
	<path class="st2" d="M13.5,18.2c0.5,0,1,0.2,1.4,0.6s0.6,0.8,0.6,1.3s-0.2,1-0.6,1.3c-0.4,0.4-0.8,0.6-1.4,0.6
		c-0.5,0-1-0.2-1.3-0.6c-0.4-0.4-0.6-0.8-0.6-1.3s0.2-1,0.6-1.3C12.5,18.4,13,18.2,13.5,18.2z M12,4.9h3v12h-3V4.9z"/>
</g>
</svg>
