<?xml version="1.0" encoding="UTF-8"?>
<svg width="53px" height="53px" viewBox="0 0 53 53" version="1.1" xmlns="http://www.w3.org/2000/svg" xmlns:xlink="http://www.w3.org/1999/xlink">
    <!-- Generator: Sketch 48.2 (47327) - http://www.bohemiancoding.com/sketch -->
    <title>003-edit copy</title>
    <desc>Created with Sketch.</desc>
    <defs></defs>
    <g id="Resultados-de-busqueda" stroke="none" stroke-width="1" fill="none" fill-rule="evenodd" transform="translate(-57.000000, -854.000000)" opacity="0.5">
        <g id="003-edit-copy" transform="translate(57.000000, 854.000000)" fill="#00639E" fill-rule="nonzero">
            <path d="M49.5670261,3.43055778 C45.0047845,-1.14351926 37.5854955,-1.14351926 33.0232539,3.43055778 L2.69112278,33.7549944 C2.45397655,33.9921688 2.30717175,34.2971072 2.26200104,34.6246337 L0.0147582652,51.2720153 C-0.0529977984,51.7463641 0.116392361,52.2207128 0.443880001,52.5482393 C0.726196933,52.8305897 1.12144064,53 1.51668434,53 C1.58444041,53 1.65219647,53 1.71995253,52.988706 L11.7478499,51.6334239 C12.5835081,51.5204837 13.1707273,50.7524905 13.0578005,49.9167333 C12.9448737,49.080976 12.1769717,48.4936871 11.3413136,48.6066272 L3.30092735,49.6908529 L4.87060949,38.0806031 L17.0892863,50.3007298 C17.3716032,50.5830803 17.7668469,50.7524905 18.1620906,50.7524905 C18.5573343,50.7524905 18.952578,50.5943743 19.234895,50.3007298 L49.5670261,19.9762932 C51.7803909,17.7626658 53,14.8262213 53,11.6977785 C53,8.56933568 51.7803909,5.63289116 49.5670261,3.43055778 Z M33.6104731,7.15758351 L38.7034706,12.2511853 L11.0251186,39.9328219 L5.93212115,34.8392201 L33.6104731,7.15758351 Z M18.1733833,47.0706409 L13.1933126,42.0899792 L40.8716646,14.4083427 L45.8517353,19.3890043 L18.1733833,47.0706409 Z M47.9747586,17.209259 L35.7899598,5.02301422 C37.3370566,3.74679026 39.2681044,3.04656118 41.3007864,3.04656118 C43.6157852,3.04656118 45.7839792,3.95008257 47.4214174,5.57642108 C49.0588556,7.20275958 49.9509771,9.38250493 49.9509771,11.6977785 C49.9509771,13.7419956 49.2508311,15.6619786 47.9747586,17.209259 Z" id="Shape"></path>
        </g>
    </g>
</svg>