<?xml version="1.0" encoding="UTF-8"?>
<svg width="40px" height="54px" viewBox="0 0 40 54" version="1.1" xmlns="http://www.w3.org/2000/svg" xmlns:xlink="http://www.w3.org/1999/xlink">
    <!-- Generator: Sketch 48.2 (47327) - http://www.bohemiancoding.com/sketch -->
    <title>001-light-bulb copy</title>
    <desc>Created with Sketch.</desc>
    <defs></defs>
    <g id="Resultados-de-busqueda" stroke="none" stroke-width="1" fill="none" fill-rule="evenodd" transform="translate(-61.000000, -730.000000)" opacity="0.5">
        <g id="001-light-bulb-copy" transform="translate(61.000000, 730.000000)" fill="#00639E" fill-rule="nonzero">
            <path d="M33.3494994,5.08319495 C29.0613576,1.23936371 23.4992377,-0.517698533 17.6829761,0.132521228 C8.37632468,1.22150459 0.987020227,8.71958568 0.113974622,17.941547 C-0.596567868,24.6709464 2.04661223,31.2059033 7.16287671,35.4069169 C8.78084249,36.7741431 9.70872367,38.7102192 9.70872367,40.7172034 L9.70872367,41.1490981 C9.70872367,42.1714004 10.5355808,43 11.5557334,43 L28.3631531,43 C29.3839384,43 30.2101629,42.1714004 30.2107956,41.1490981 L30.2107956,41.0256695 C30.2107956,38.9834954 31.1157934,36.998069 32.6365315,35.7123183 C37.3163259,31.7334341 40,26.0245405 40,20.0485 C40.0001055,14.32608 37.5755295,8.87144101 33.3494994,5.08319495 Z M30.2508677,32.8852943 C28.347757,34.4955736 27.0690336,36.8104954 26.6583995,39.2981963 L13.30425,39.2981963 C12.9446552,36.7247928 11.6166853,34.328501 9.52460268,32.5602372 C5.35404095,29.1347743 3.20902094,23.8158223 3.79017257,18.3105649 C4.50124233,10.7957872 10.5245083,4.69758599 18.1022573,3.80980828 C22.8534434,3.27794479 27.3922471,4.70931594 30.8868549,7.8411074 C34.3309508,10.9284096 36.3060859,15.3774429 36.3060859,20.0479716 C36.3059805,24.9350288 34.0975832,29.6147512 30.2508677,32.8852943 Z" id="Shape"></path>
            <path d="M26.3855857,41 L26.3855857,50.3551888 L13.6144143,50.3551888 L13.6144143,41 L10,41 L10,52.1775944 C10,53.1841574 10.8090386,54 11.8072072,54 L28.1927928,54 C29.1915805,54 30,53.1841574 30,52.1775944 L30,41 L26.3855857,41 Z" id="Shape"></path>
            <rect id="Rectangle-path" x="18" y="27" width="4" height="14"></rect>
            <path d="M24.1151973,25 L15.8848027,25 C14.8437761,25 14,25.8953468 14,27 C14,28.1046532 14.8437761,29 15.8848027,29 L24.1151973,29 C25.1562239,29 26,28.1053383 26,27 C26,25.8953468 25.1562239,25 24.1151973,25 Z" id="Shape"></path>
        </g>
    </g>
</svg>