<svg xmlns="http://www.w3.org/2000/svg" width="18.933" height="24.5" viewBox="0 0 18.933 24.5"><defs><style>.a,.e{fill:#2a76a9;}.b{fill:#4989b6;}.c{fill:none;}.d{fill:#e1ebf3;}.e{stroke:#2a76a9;stroke-linecap:round;stroke-linejoin:round;}.f{fill:#679dc2;}</style></defs><path class="a" d="M17.315,1.5a9.466,9.466,0,0,1,9.467,9.466V23.314a1.06,1.06,0,0,1-.68.99h0a23.614,23.614,0,0,1-17.574,0h0a1.06,1.06,0,0,1-.668-.99V10.966A9.466,9.466,0,0,1,17.315,1.5Z" transform="translate(-7.848 -1.5)"/><path class="b" d="M17.307,1.5A9.466,9.466,0,0,0,7.84,10.966v2.618a9.467,9.467,0,0,1,18.933,0V10.966A9.466,9.466,0,0,0,17.307,1.5Z" transform="translate(-7.84 -1.5)"/><path class="c" d="M17.315,1.5a9.466,9.466,0,0,1,9.467,9.466V23.314a1.06,1.06,0,0,1-.68.99h0a23.614,23.614,0,0,1-17.574,0h0a1.06,1.06,0,0,1-.668-.99V10.966A9.466,9.466,0,0,1,17.315,1.5Z" transform="translate(-7.848 -1.5)"/><g transform="translate(0.067 5.776)"><path class="d" d="M25.245,17.007a7.615,7.615,0,0,1-4.962-4.352l-.545-1.295a13.8,13.8,0,0,1-8.658,5.372l-1.64.3a1.582,1.582,0,0,0,0,3.157h.1a7.879,7.879,0,0,0,15.582,0h.1a1.582,1.582,0,0,0,0-3.157Z" transform="translate(-7.954 -11.36)"/></g><g transform="translate(3.427 12.008)"><path class="e" d="M15.93,22.691a.668.668,0,1,0,.187-.487A.674.674,0,0,0,15.93,22.691Z" transform="translate(-14.618 -22)"/><path class="e" d="M31.118,22.691a.668.668,0,1,1-.187-.487A.674.674,0,0,1,31.118,22.691Z" transform="translate(-20.35 -22)"/><g transform="translate(3.539 4.962)"><path class="a" d="M20.07,30.47a.334.334,0,0,0-.258.117.316.316,0,0,0-.076.269,2.531,2.531,0,0,0,4.991,0,.316.316,0,0,0-.076-.269.334.334,0,0,0-.258-.117Z" transform="translate(-19.731 -30.47)"/><path class="f" d="M22.637,32.239a3.146,3.146,0,0,0-1.927.586,2.554,2.554,0,0,0,3.855,0A3.146,3.146,0,0,0,22.637,32.239Z" transform="translate(-20.136 -31.202)"/></g><g transform="translate(3.539 4.962)"><path class="c" d="M20.07,30.47a.334.334,0,0,0-.258.117.316.316,0,0,0-.076.269,2.531,2.531,0,0,0,4.991,0,.316.316,0,0,0-.076-.269.334.334,0,0,0-.258-.117Z" transform="translate(-19.731 -30.47)"/></g></g></svg>